<svg width="200" height="218" viewBox="0 0 200 218" fill="none" xmlns="http://www.w3.org/2000/svg">
<g clip-path="url(#clip0_47_284)">
<path d="M32.7786 18.6419C30.2042 15.4911 27.0231 13.9158 23.2352 13.9158C21.5627 13.9158 20.0213 14.2276 18.6112 14.8183C17.1846 15.4255 15.9712 16.246 14.9545 17.2962C13.9379 18.3465 13.118 19.5772 12.5441 21.0213C11.9538 22.4654 11.6586 24.008 11.6586 25.6818C11.6586 27.3556 11.9538 28.9638 12.5441 30.4079C13.1344 31.852 13.9379 33.0992 14.9873 34.1658C16.0368 35.2325 17.2502 36.053 18.6439 36.6602C20.0377 37.2673 21.5627 37.5627 23.1861 37.5627C26.7443 37.5627 29.9418 36.053 32.7786 33.0171V46.2108L31.6471 46.6047C29.9418 47.2118 28.3513 47.6549 26.8755 47.9339C25.3997 48.2129 23.9403 48.3605 22.4974 48.3605C19.5458 48.3605 16.709 47.8026 14.0035 46.6867C11.2979 45.5708 8.90385 43.9955 6.85416 41.9606C4.78808 39.9258 3.13194 37.5299 1.88573 34.7402C0.639522 31.9505 0.0164185 28.9146 0.0164185 25.6162C0.0164185 22.3177 0.639522 19.2983 1.86933 16.5578C3.09914 13.8173 4.73889 11.4378 6.80497 9.45222C8.87105 7.46659 11.2651 5.90764 13.9871 4.79175C16.709 3.67586 19.5786 3.11792 22.5629 3.11792C24.2683 3.11792 25.9408 3.29843 27.597 3.65945C29.2367 4.02048 30.9749 4.57842 32.795 5.33328V18.6419H32.7786Z" fill="#0069FC"/>
<path d="M37.7142 32.3443C37.7142 30.1781 38.1405 28.1597 39.026 26.2889C39.9115 24.4182 41.1085 22.7772 42.6662 21.3987C44.224 20.0203 46.0605 18.9208 48.2086 18.1331C50.3403 17.329 52.6851 16.9352 55.2267 16.9352C57.7683 16.9352 60.0476 17.329 62.1792 18.1003C64.3109 18.8716 66.1802 19.9546 67.7544 21.3331C69.3285 22.7115 70.5419 24.369 71.411 26.2725C72.2801 28.1925 72.7228 30.293 72.7228 32.6068C72.7228 34.9206 72.2801 37.0375 71.3946 38.9411C70.5092 40.8611 69.2793 42.5021 67.738 43.8806C66.1802 45.259 64.3273 46.3421 62.1464 47.0969C59.9656 47.8518 57.6043 48.2292 55.0791 48.2292C52.5539 48.2292 50.2747 47.8518 48.143 47.0969C46.0277 46.3421 44.1912 45.259 42.6662 43.8641C41.1249 42.4693 39.9279 40.779 39.0588 38.8262C38.1897 36.8734 37.747 34.7073 37.747 32.3114L37.7142 32.3443ZM48.5693 32.4591C48.5693 33.4437 48.7497 34.3463 49.1104 35.1668C49.4712 35.9873 49.9467 36.6929 50.537 37.3001C51.1273 37.9073 51.816 38.3832 52.6359 38.7278C53.4558 39.0724 54.3084 39.2365 55.2267 39.2365C56.145 39.2365 56.9976 39.0724 57.8175 38.7278C58.6374 38.3832 59.3261 37.9073 59.9164 37.3001C60.5067 36.6929 60.9822 35.9873 61.343 35.1668C61.7037 34.3463 61.8841 33.4766 61.8841 32.5248C61.8841 31.573 61.7037 30.7525 61.343 29.932C60.9822 29.1115 60.5067 28.4058 59.9164 27.7987C59.3261 27.1915 58.621 26.7156 57.8175 26.371C56.9976 26.0264 56.145 25.8623 55.2267 25.8623C54.3084 25.8623 53.4558 26.0264 52.6359 26.371C51.816 26.7156 51.1273 27.1915 50.537 27.7987C49.9467 28.4058 49.4712 29.1115 49.1104 29.8992C48.7497 30.6868 48.5693 31.5402 48.5693 32.4591Z" fill="#0069FC"/>
<path d="M101.107 0H111.437V47.179H101.107V43.9462C98.9096 46.7195 95.9417 48.098 92.1866 48.098C90.0714 48.098 88.1201 47.7041 86.3327 46.9C84.5454 46.1124 83.004 45.0129 81.6759 43.6016C80.3477 42.2068 79.3146 40.5493 78.5767 38.6622C77.8388 36.775 77.4617 34.7238 77.4617 32.5248C77.4617 30.4407 77.806 28.4551 78.5111 26.5844C79.2162 24.7136 80.2001 23.0726 81.4955 21.6613C82.7745 20.2665 84.3322 19.1506 86.1196 18.3301C87.9233 17.5096 89.891 17.1157 92.0554 17.1157C95.6957 17.1157 98.6964 18.3793 101.09 20.9229V0H101.107ZM88.1528 32.5084C88.1528 33.4602 88.3168 34.3299 88.6612 35.1504C89.0055 35.9709 89.4646 36.6766 90.055 37.2837C90.6453 37.8909 91.3504 38.3668 92.1538 38.7114C92.9737 39.056 93.8428 39.2201 94.7938 39.2201C95.7449 39.2201 96.5648 39.056 97.3846 38.7114C98.2045 38.3668 98.8932 37.8909 99.4835 37.2837C100.074 36.6766 100.549 35.9709 100.91 35.1832C101.271 34.3956 101.451 33.5422 101.451 32.6233C101.451 31.7043 101.271 30.851 100.91 30.0305C100.549 29.21 100.074 28.5043 99.4835 27.8972C98.8932 27.29 98.1881 26.8141 97.3846 26.4695C96.5648 26.1249 95.7121 25.9608 94.7938 25.9608C93.8756 25.9608 93.0229 26.1249 92.203 26.4695C91.3832 26.8141 90.6945 27.29 90.1042 27.8972C89.5138 28.5043 89.0383 29.1936 88.6776 29.9648C88.3168 30.7361 88.1365 31.5894 88.1365 32.492L88.1528 32.5084Z" fill="#0069FC"/>
<path d="M127.687 34.3299C127.687 38.7606 129.77 40.976 133.935 40.976C136.165 40.976 137.854 40.0734 138.985 38.2519H148.922C146.921 44.9144 141.904 48.262 133.869 48.262C131.409 48.262 129.147 47.8846 127.113 47.1462C125.064 46.4077 123.309 45.3575 121.866 43.9954C120.407 42.6334 119.275 41.0088 118.488 39.1052C117.701 37.2181 117.291 35.0847 117.291 32.7381C117.291 30.3915 117.668 28.1269 118.423 26.1741C119.177 24.2213 120.259 22.5638 121.653 21.2018C123.047 19.8398 124.752 18.7895 126.736 18.0511C128.72 17.3126 130.967 16.9352 133.459 16.9352C135.951 16.9352 138.132 17.3126 140.1 18.0511C142.068 18.7895 143.74 19.8562 145.101 21.2674C146.462 22.6787 147.512 24.3854 148.233 26.4038C148.955 28.4387 149.315 30.7197 149.315 33.2468V34.3299H127.671H127.687ZM139.739 28.373C139.395 26.9289 138.69 25.7802 137.64 24.9105C136.575 24.0408 135.296 23.5977 133.771 23.5977C132.18 23.5977 130.885 24.0079 129.884 24.8448C128.884 25.6818 128.245 26.8469 127.982 28.373H139.739Z" fill="#0069FC"/>
<path d="M13.0688 102.973H1.93494V60.1102H19.6606C24.4651 60.1102 28.1545 61.3574 30.7125 63.8681C33.2705 66.3625 34.5495 69.8906 34.5495 74.4362C34.5495 78.9818 33.2705 82.51 30.7125 85.0043C28.1545 87.4987 24.4815 88.7622 19.6606 88.7622H13.0688V102.973ZM13.0688 79.7859H16.7583C20.8412 79.7859 22.8909 77.9972 22.8909 74.4362C22.8909 70.8752 20.8412 69.0865 16.7583 69.0865H13.0688V79.7695V79.7859Z" fill="#0069FC"/>
<path d="M37.4846 88.1386C37.4846 85.9724 37.911 83.954 38.7964 82.0832C39.6819 80.2125 40.8789 78.5715 42.4367 77.193C43.9944 75.8146 45.831 74.7151 47.979 73.9274C50.1107 73.1233 52.4555 72.7295 54.9972 72.7295C57.5388 72.7295 59.818 73.1233 61.9497 73.8946C64.0814 74.6659 65.9507 75.7489 67.5248 77.1274C69.099 78.5058 70.3124 80.1633 71.1815 82.0668C72.0505 83.9868 72.4933 86.0873 72.4933 88.4011C72.4933 90.715 72.0505 92.8319 71.1651 94.7354C70.2796 96.6554 69.0498 98.2964 67.5084 99.6749C65.9507 101.053 64.0977 102.136 61.9169 102.891C59.736 103.646 57.3748 104.024 54.8496 104.024C52.3244 104.024 50.0451 103.646 47.9134 102.891C45.7982 102.136 43.9616 101.053 42.4367 99.6585C40.8953 98.2636 39.6983 96.5734 38.8292 94.6206C37.9602 92.6678 37.5174 90.5016 37.5174 88.1057L37.4846 88.1386ZM48.3398 88.2534C48.3398 89.238 48.5201 90.1406 48.8809 90.9611C49.2416 91.7816 49.7172 92.4872 50.3075 93.0944C50.8978 93.7016 51.5865 94.1775 52.4063 94.5221C53.2262 94.8667 54.0789 95.0308 54.9972 95.0308C55.9154 95.0308 56.7681 94.8667 57.588 94.5221C58.4078 94.1775 59.0965 93.7016 59.6868 93.0944C60.2771 92.4872 60.7527 91.7816 61.1134 90.9611C61.4742 90.1406 61.6545 89.2709 61.6545 88.3191C61.6545 87.3673 61.4742 86.5468 61.1134 85.7263C60.7527 84.9058 60.2771 84.2001 59.6868 83.593C59.0965 82.9858 58.3914 82.5099 57.588 82.1653C56.7681 81.8207 55.9154 81.6566 54.9972 81.6566C54.0789 81.6566 53.2262 81.8207 52.4063 82.1653C51.5865 82.5099 50.8978 82.9858 50.3075 83.593C49.7172 84.2001 49.2416 84.9058 48.8809 85.6935C48.5201 86.4812 48.3398 87.3345 48.3398 88.2534Z" fill="#0069FC"/>
<path d="M100.369 83.2484C98.5816 82.034 96.7943 81.4269 94.9742 81.4269C93.9904 81.4269 93.0721 81.591 92.2194 81.9356C91.3668 82.2802 90.6125 82.7561 89.973 83.3797C89.3335 84.0032 88.8252 84.7417 88.4644 85.595C88.1037 86.4483 87.9233 87.4001 87.9233 88.4668C87.9233 89.5334 88.1037 90.436 88.4644 91.2729C88.8252 92.1262 89.3171 92.8647 89.9402 93.4883C90.5633 94.1119 91.3176 94.6042 92.1866 94.9324C93.0557 95.2606 93.9904 95.4411 94.9742 95.4411C96.9091 95.4411 98.6964 94.7847 100.369 93.4555V102.202C97.8274 103.302 95.4333 103.843 93.1541 103.843C91.0388 103.843 89.0219 103.482 87.1034 102.76C85.1849 102.038 83.5124 101.004 82.053 99.6585C80.5936 98.3128 79.4294 96.7047 78.5603 94.8339C77.6913 92.9632 77.2485 90.8627 77.2485 88.5488C77.2485 86.235 77.6585 84.1181 78.4947 82.2145C79.331 80.2946 80.4624 78.6536 81.9054 77.2751C83.3484 75.8967 85.0537 74.8136 87.0378 74.0423C89.0219 73.271 91.1536 72.8772 93.4328 72.8772C95.9253 72.8772 98.2373 73.4023 100.369 74.469V83.2156V83.2484Z" fill="#0069FC"/>
<path d="M117.914 55.7943V84.3315L128.704 73.8126H142.789L128.195 87.2853L143.642 102.973H129.212L117.914 91.0924V102.973H107.633V55.7943H117.914Z" fill="#0069FC"/>
<path d="M154.792 90.1242C154.792 94.5549 156.875 96.7703 161.04 96.7703C163.27 96.7703 164.959 95.8677 166.09 94.0462H176.027C174.026 100.709 169.009 104.056 160.974 104.056C158.514 104.056 156.252 103.679 154.218 102.94C152.169 102.202 150.414 101.152 148.971 99.7897C147.512 98.4277 146.38 96.8031 145.593 94.8995C144.806 93.0124 144.396 90.8791 144.396 88.5324C144.396 86.1858 144.773 83.9212 145.528 81.9684C146.282 80.0156 147.364 78.3582 148.758 76.9961C150.152 75.6341 151.857 74.5838 153.841 73.8454C155.825 73.1069 158.072 72.7295 160.564 72.7295C163.057 72.7295 165.237 73.1069 167.205 73.8454C169.173 74.5838 170.845 75.6505 172.206 77.0618C173.567 78.473 174.617 80.1797 175.338 82.1981C176.06 84.233 176.42 86.514 176.42 89.0411V90.1242H154.776H154.792ZM166.828 84.1673C166.484 82.7232 165.795 81.5745 164.729 80.7048C163.663 79.8351 162.384 79.392 160.859 79.392C159.269 79.392 157.973 79.8022 156.973 80.6392C155.973 81.4761 155.333 82.6412 155.071 84.1673H166.828Z" fill="#0069FC"/>
<path d="M194.146 82.3951V102.973H183.865V82.3951H180.454V73.8126H183.865V65.066H194.146V73.8126H200V82.3951H194.146Z" fill="#0069FC"/>
<path d="M200 117.578C200 172.847 155.235 217.647 100.008 217.647C44.7815 217.647 0 172.847 0 117.578H200Z" fill="#0069FC"/>
<path d="M157.465 28.9966H200V37.5791H157.465V28.9966Z" fill="#0069FC"/>
</g>
<defs>
<clipPath id="clip0_47_284">
<rect width="200" height="217.647" fill="white"/>
</clipPath>
</defs>
</svg>
